<?xml version="1.0" standalone="no"?>
 <!DOCTYPE svg PUBLIC "-//W3C//DTD SVG 1.1//EN" 
 "http://www.w3.org/Graphics/SVG/1.1/DTD/svg11.dtd"> 
<svg xmlns="http://www.w3.org/2000/svg" version="1.1" 
    width="29.7002cm" height="21.0007cm" viewBox="0 0 116930 82680 ">
<title>SVG Picture created as Reflow Oven-F.Paste.svg date 2016/07/28 21:50:41 </title>
  <desc>Picture generated by PCBNEW </desc>
<g style="fill:#000000; fill-opacity:1;stroke:#000000; stroke-opacity:1;
stroke-linecap:round; stroke-linejoin:round; "
 transform="translate(0 0) scale(1 1)">
</g>
<g style="fill:#000000; fill-opacity:0.0; 
stroke:#000000; stroke-width:-0.000393701; stroke-opacity:1; 
stroke-linecap:round; stroke-linejoin:round;">
</g>
<g style="fill:#000000; fill-opacity:0.0; 
stroke:#000000; stroke-width:0; stroke-opacity:1; 
stroke-linecap:round; stroke-linejoin:round;">
</g>
<g style="fill:#000000; fill-opacity:1.0; 
stroke:#000000; stroke-width:0; stroke-opacity:1; 
stroke-linecap:round; stroke-linejoin:round;">
<polyline style="fill-rule:evenodd;"
points="89485,36058
89485,35861
89721,35861
89721,36058
89485,36058
" /> 
<polyline style="fill-rule:evenodd;"
points="89918,36058
89918,35861
90154,35861
90154,36058
89918,36058
" /> 
<polyline style="fill-rule:evenodd;"
points="90461,36585
90658,36585
90658,36821
90461,36821
90461,36585
" /> 
<polyline style="fill-rule:evenodd;"
points="90461,37018
90658,37018
90658,37254
90461,37254
90461,37018
" /> 
<polyline style="fill-rule:evenodd;"
points="81939,38137
82420,38137
82420,38495
81939,38495
81939,38137
" /> 
<polyline style="fill-rule:evenodd;"
points="81939,39424
82420,39424
82420,39782
81939,39782
81939,39424
" /> 
<polyline style="fill-rule:evenodd;"
points="84559,38037
85040,38037
85040,38395
84559,38395
84559,38037
" /> 
<polyline style="fill-rule:evenodd;"
points="84559,39324
85040,39324
85040,39682
84559,39682
84559,39324
" /> 
<polyline style="fill-rule:evenodd;"
points="78499,38037
78980,38037
78980,38395
78499,38395
78499,38037
" /> 
<polyline style="fill-rule:evenodd;"
points="78499,39324
78980,39324
78980,39682
78499,39682
78499,39324
" /> 
<polyline style="fill-rule:evenodd;"
points="86839,36897
87320,36897
87320,37255
86839,37255
86839,36897
" /> 
<polyline style="fill-rule:evenodd;"
points="86839,38184
87320,38184
87320,38542
86839,38542
86839,38184
" /> 
<polyline style="fill-rule:evenodd;"
points="80675,24150
81275,24150
81275,24850
80675,24850
80675,24150
" /> 
<polyline style="fill-rule:evenodd;"
points="77125,24150
77725,24150
77725,24850
77125,24850
77125,24150
" /> 
<polyline style="fill-rule:evenodd;"
points="80675,25150
81275,25150
81275,25850
80675,25850
80675,25150
" /> 
<polyline style="fill-rule:evenodd;"
points="77125,25150
77725,25150
77725,25850
77125,25850
77125,25150
" /> 
<polyline style="fill-rule:evenodd;"
points="80675,26150
81275,26150
81275,26850
80675,26850
80675,26150
" /> 
<polyline style="fill-rule:evenodd;"
points="77125,26150
77725,26150
77725,26850
77125,26850
77125,26150
" /> 
<polyline style="fill-rule:evenodd;"
points="79658,41718
79441,41718
79441,41127
79658,41127
79658,41718
" /> 
<polyline style="fill-rule:evenodd;"
points="80158,41718
79941,41718
79941,41127
80158,41127
80158,41718
" /> 
<polyline style="fill-rule:evenodd;"
points="80658,41718
80441,41718
80441,41127
80658,41127
80658,41718
" /> 
<polyline style="fill-rule:evenodd;"
points="81158,41718
80941,41718
80941,41127
81158,41127
81158,41718
" /> 
<polyline style="fill-rule:evenodd;"
points="81158,39592
80941,39592
80941,39001
81158,39001
81158,39592
" /> 
<polyline style="fill-rule:evenodd;"
points="80658,39592
80441,39592
80441,39001
80658,39001
80658,39592
" /> 
<polyline style="fill-rule:evenodd;"
points="80158,39592
79941,39592
79941,39001
80158,39001
80158,39592
" /> 
<polyline style="fill-rule:evenodd;"
points="79658,39592
79441,39592
79441,39001
79658,39001
79658,39592
" /> 
<polyline style="fill-rule:evenodd;"
points="85998,41638
85781,41638
85781,41047
85998,41047
85998,41638
" /> 
<polyline style="fill-rule:evenodd;"
points="86498,41638
86281,41638
86281,41047
86498,41047
86498,41638
" /> 
<polyline style="fill-rule:evenodd;"
points="86998,41638
86781,41638
86781,41047
86998,41047
86998,41638
" /> 
<polyline style="fill-rule:evenodd;"
points="87498,41638
87281,41638
87281,41047
87498,41047
87498,41638
" /> 
<polyline style="fill-rule:evenodd;"
points="87498,39512
87281,39512
87281,38921
87498,38921
87498,39512
" /> 
<polyline style="fill-rule:evenodd;"
points="86998,39512
86781,39512
86781,38921
86998,38921
86998,39512
" /> 
<polyline style="fill-rule:evenodd;"
points="86498,39512
86281,39512
86281,38921
86498,38921
86498,39512
" /> 
<polyline style="fill-rule:evenodd;"
points="85998,39512
85781,39512
85781,38921
85998,38921
85998,39512
" /> 
<polyline style="fill-rule:evenodd;"
points="76145,25406
76145,26114
75516,26114
75516,25406
76145,25406
" /> 
<polyline style="fill-rule:evenodd;"
points="75043,25406
75043,26114
74414,26114
74414,25406
75043,25406
" /> 
<polyline style="fill-rule:evenodd;"
points="76165,24046
76165,24754
75536,24754
75536,24046
76165,24046
" /> 
<polyline style="fill-rule:evenodd;"
points="75063,24046
75063,24754
74434,24754
74434,24046
75063,24046
" /> 
<polyline style="fill-rule:evenodd;"
points="82547,27723
82547,28077
82272,28077
82272,27723
82547,27723
" /> 
<polyline style="fill-rule:evenodd;"
points="82037,27723
82037,28077
81762,28077
81762,27723
82037,27723
" /> 
<polyline style="fill-rule:evenodd;"
points="82663,40767
83017,40767
83017,41042
82663,41042
82663,40767
" /> 
<polyline style="fill-rule:evenodd;"
points="82663,41277
83017,41277
83017,41552
82663,41552
82663,41277
" /> 
<polyline style="fill-rule:evenodd;"
points="88732,39803
88732,40157
88457,40157
88457,39803
88732,39803
" /> 
<polyline style="fill-rule:evenodd;"
points="88222,39803
88222,40157
87947,40157
87947,39803
88222,39803
" /> 
<polyline style="fill-rule:evenodd;"
points="82063,40747
82417,40747
82417,41022
82063,41022
82063,40747
" /> 
<polyline style="fill-rule:evenodd;"
points="82063,41257
82417,41257
82417,41532
82063,41532
82063,41257
" /> 
<polyline style="fill-rule:evenodd;"
points="91362,38364
91362,40804
89237,40804
89237,38364
91362,38364
" /> 
<polyline style="fill-rule:evenodd;"
points="91393,36396
91393,37025
91000,37025
91000,36396
91393,36396
" /> 
<polyline style="fill-rule:evenodd;"
points="89599,36396
89599,37025
89206,37025
89206,36396
89599,36396
" /> 
<polyline style="fill-rule:evenodd;"
points="82452,30723
82452,31077
82177,31077
82177,30723
82452,30723
" /> 
<polyline style="fill-rule:evenodd;"
points="81942,30723
81942,31077
81667,31077
81667,30723
81942,30723
" /> 
<polyline style="fill-rule:evenodd;"
points="82487,33563
82487,33917
82212,33917
82212,33563
82487,33563
" /> 
<polyline style="fill-rule:evenodd;"
points="81977,33563
81977,33917
81702,33917
81702,33563
81977,33563
" /> 
<polyline style="fill-rule:evenodd;"
points="82452,32863
82452,33217
82177,33217
82177,32863
82452,32863
" /> 
<polyline style="fill-rule:evenodd;"
points="81942,32863
81942,33217
81667,33217
81667,32863
81942,32863
" /> 
<polyline style="fill-rule:evenodd;"
points="72081,32645
72278,32645
72278,32881
72081,32881
72081,32645
" /> 
<polyline style="fill-rule:evenodd;"
points="72081,33078
72278,33078
72278,33314
72081,33314
72081,33078
" /> 
<polyline style="fill-rule:evenodd;"
points="72561,32645
72758,32645
72758,32881
72561,32881
72561,32645
" /> 
<polyline style="fill-rule:evenodd;"
points="72561,33078
72758,33078
72758,33314
72561,33314
72561,33078
" /> 
<polyline style="fill-rule:evenodd;"
points="87865,41498
87865,41301
88101,41301
88101,41498
87865,41498
" /> 
<polyline style="fill-rule:evenodd;"
points="88298,41498
88298,41301
88534,41301
88534,41498
88298,41498
" /> 
<polyline style="fill-rule:evenodd;"
points="81641,41325
81838,41325
81838,41561
81641,41561
81641,41325
" /> 
<polyline style="fill-rule:evenodd;"
points="81641,41758
81838,41758
81838,41994
81641,41994
81641,41758
" /> 
<polyline style="fill-rule:evenodd;"
points="73458,37254
73261,37254
73261,37018
73458,37018
73458,37254
" /> 
<polyline style="fill-rule:evenodd;"
points="73458,36821
73261,36821
73261,36585
73458,36585
73458,36821
" /> 
<polyline style="fill-rule:evenodd;"
points="85318,37274
85121,37274
85121,37038
85318,37038
85318,37274
" /> 
<polyline style="fill-rule:evenodd;"
points="85318,36841
85121,36841
85121,36605
85318,36605
85318,36841
" /> 
<polyline style="fill-rule:evenodd;"
points="83534,34581
83534,34778
83298,34778
83298,34581
83534,34581
" /> 
<polyline style="fill-rule:evenodd;"
points="83101,34581
83101,34778
82865,34778
82865,34581
83101,34581
" /> 
<polyline style="fill-rule:evenodd;"
points="83534,34101
83534,34298
83298,34298
83298,34101
83534,34101
" /> 
<polyline style="fill-rule:evenodd;"
points="83101,34101
83101,34298
82865,34298
82865,34101
83101,34101
" /> 
<polyline style="fill-rule:evenodd;"
points="87947,40757
87947,40403
88222,40403
88222,40757
87947,40757
" /> 
<polyline style="fill-rule:evenodd;"
points="88457,40757
88457,40403
88732,40403
88732,40757
88457,40757
" /> 
<polyline style="fill-rule:evenodd;"
points="74692,30443
74692,30797
74417,30797
74417,30443
74692,30443
" /> 
<polyline style="fill-rule:evenodd;"
points="74182,30443
74182,30797
73907,30797
73907,30443
74182,30443
" /> 
<polyline style="fill-rule:evenodd;"
points="73237,30863
73237,31217
72962,31217
72962,30863
73237,30863
" /> 
<polyline style="fill-rule:evenodd;"
points="72727,30863
72727,31217
72452,31217
72452,30863
72727,30863
" /> 
</g> 
</svg>
